<?xml version="1.0" encoding="UTF-8"?>
<svg version="1.1" xmlns="http://www.w3.org/2000/svg" width="144" height="160">
<path d="M0 0 C0.825 0.226875 1.65 0.45375 2.5 0.6875 C5.8941063 2.46940581 7.09703501 4.71902589 9 8 C9.37511719 8.62648438 9.75023437 9.25296875 10.13671875 9.8984375 C11.18934854 12.46094802 11.02527945 14.02809972 10.625 16.75 C10.51414063 17.54921875 10.40328125 18.3484375 10.2890625 19.171875 C10.19367187 19.77515625 10.09828125 20.3784375 10 21 C11.175625 20.95875 12.35125 20.9175 13.5625 20.875 C17.72409674 20.86016365 21.06487667 21.68829222 25 23 C24.896875 21.948125 24.79375 20.89625 24.6875 19.8125 C25 16 25 16 27.0625 13.25 C32.83583165 8.82787363 37.7586947 7.2765821 45 7.4375 C50.634449 8.49395919 55.49662107 11.52618937 60 15 C60 15.66 60 16.32 60 17 C60.56847656 17.18175781 61.13695313 17.36351563 61.72265625 17.55078125 C65.39282074 18.74557603 68.91841067 19.96291394 72.4375 21.5625 C76.22476428 23.09069436 79.74403676 23.77550858 83.765625 24.375 C87.00534428 25.28121518 88.34708135 27.0378041 90.1875 29.75 C91.3613464 33.00065157 91.37335061 35.57761937 91 39 C83.98881511 45.55013192 73.57532306 45.31798285 64.578125 45.203125 C61.00412574 45.00023421 57.5339218 44.56180295 54 44 C51.86608597 50.25948114 51.41044485 56.42208127 51 63 C61.68298286 70.95541277 74.83401799 73.55225299 87.92578125 73.56640625 C91 74 91 74 93.48046875 75.77734375 C95 78 95 78 95 80.11328125 C93.6910521 82.5828978 92.55761306 83.09962639 90 84.1875 C89.278125 84.51105469 88.55625 84.83460937 87.8125 85.16796875 C83.92432047 86.31822186 80.02944765 86.65159324 76 87 C75.96261719 88.10472656 75.92523438 89.20945312 75.88671875 90.34765625 C75.47213881 100.65934915 74.51632807 110.77958798 73.01635742 120.99243164 C72.41289937 125.21440157 71.92617824 129.28182779 72.00390625 133.55078125 C72.09247699 138.49533886 71.33737502 143.20044412 70.5 148.0625 C70.35691406 148.92810547 70.21382813 149.79371094 70.06640625 150.68554688 C69.71736324 152.7914397 69.35960461 154.89588495 69 157 C66.625 157.625 66.625 157.625 64 158 C59.85269552 153.85269552 59.88324836 146.67720996 59.83984375 141.0390625 C59.86399747 139.23424306 59.89703407 137.4295274 59.9375 135.625 C60.06711686 124.57156209 59.82913156 113.54721831 59.5 102.5 C59.46385086 101.27086884 59.46385086 101.27086884 59.42697144 100.01690674 C59.2891534 95.34445921 59.14668826 90.67217716 59 86 C54.71 85.67 50.42 85.34 46 85 C43.73490075 102.00846847 43.78509343 118.88021167 44 136 C42.35 136.33 40.7 136.66 39 137 C27.05441281 123.43340411 27.76062784 97.69447511 27.2109375 80.5390625 C27.11435326 77.836369 26.90133789 75.32659198 26.5078125 72.640625 C25.78812507 67.48101971 25.67321627 62.32790356 25.5 57.125 C25.26207557 50.03132707 24.88246719 43.04502974 24 36 C19.96226147 37.34591284 19.00793408 39.89574146 17.0625 43.4375 C16.71058594 44.06479004 16.35867187 44.69208008 15.99609375 45.33837891 C13.21372953 50.39171911 10.90818851 55.55161964 9 61 C10.15628906 60.94779297 10.15628906 60.94779297 11.3359375 60.89453125 C12.33882812 60.86746094 13.34171875 60.84039062 14.375 60.8125 C15.87160156 60.76029297 15.87160156 60.76029297 17.3984375 60.70703125 C18.25695313 60.80371094 19.11546875 60.90039062 20 61 C22 64 22 64 22 66.9375 C21 70 21 70 18.5 72.25 C14.30107141 74.34946429 10.61137619 75.16156797 6 76 C6 79.63 6 83.26 6 87 C7.36125 86.505 8.7225 86.01 10.125 85.5 C13.8828381 84.23551419 17.00211508 83.69247039 21 84 C21 84.66 21 85.32 21 86 C21.66 86 22.32 86 23 86 C22.52354792 90.28806873 21.34097516 92.26647487 18 95 C17.34 95 16.68 95 16 95 C16 95.66 16 96.32 16 97 C10.25 100 10.25 100 8 100 C8.474375 100.928125 8.94875 101.85625 9.4375 102.8125 C11 106 11 106 12 109 C12.66 109 13.32 109 14 109 C15.625 111 15.625 111 17 113 C18.0828125 112.7834375 18.0828125 112.7834375 19.1875 112.5625 C21.0625 112.1875 22.9375 111.8125 24.8125 111.4375 C25.8953125 111.2209375 25.8953125 111.2209375 27 111 C27.47863248 117.22222222 27.47863248 117.22222222 25.5 120.4375 C22.04491538 122.59692789 18.91629766 122.6746889 15 122 C12 120.5 12 120.5 10 119 C10.165 119.928125 10.33 120.85625 10.5 121.8125 C11.46748585 128.71109476 12.25090218 136.65300051 9 143 C6.8125 145.4375 6.8125 145.4375 4 147 C0.361315 146.93726405 -1.98461317 146.75335152 -4.9375 144.5625 C-6 143 -6 143 -6 141 C-6.66 141 -7.32 141 -8 141 C-9.00936536 138.921188 -10.00717846 136.8367638 -11 134.75 C-11.556875 133.58984375 -12.11375 132.4296875 -12.6875 131.234375 C-14 128 -14 128 -14 124 C-20.54154427 129.20350113 -24.47112703 134.43544783 -28 142 C-29.98 141.67 -31.96 141.34 -34 141 C-34.53828889 134.67510556 -32.81830639 130.60001139 -30 125 C-29.60296875 124.16984375 -29.2059375 123.3396875 -28.796875 122.484375 C-26.18633435 117.09806962 -23.28410648 112.00302178 -20 107 C-20.84304687 106.65066406 -21.68609375 106.30132812 -22.5546875 105.94140625 C-23.65039062 105.48636719 -24.74609375 105.03132813 -25.875 104.5625 C-26.96554688 104.11003906 -28.05609375 103.65757813 -29.1796875 103.19140625 C-30.80558624 102.50456537 -32.42131774 101.78934113 -34 101 C-34 100.34 -34 99.68 -34 99 C-34.66 99 -35.32 99 -36 99 C-36 98.34 -36 97.68 -36 97 C-36.66 97 -37.32 97 -38 97 C-39.49297212 94.01405576 -39.11755228 91.29146376 -39 88 C-38.505 87.01 -38.505 87.01 -38 86 C-28.64664664 84.28521855 -19.30521945 85.35379926 -10 87 C-10.495 82.05 -10.495 82.05 -11 77 C-11.845625 76.96261719 -12.69125 76.92523438 -13.5625 76.88671875 C-20.31064379 76.49563314 -25.82797163 75.78346377 -32 73 C-32 72.34 -32 71.68 -32 71 C-33.11375 70.62875 -33.11375 70.62875 -34.25 70.25 C-37.30198066 68.86273607 -38.9994481 67.69305063 -41 65 C-40.82252659 61.84097338 -40.45953129 60.43728031 -38.14453125 58.234375 C-33.7875214 55.4610689 -30.30754402 53.27218174 -25 53 C-25.33 51.783125 -25.66 50.56625 -26 49.3125 C-26.80322213 46.12789396 -27.20641973 43.3027157 -27 40 C-28.07314453 39.86271484 -28.07314453 39.86271484 -29.16796875 39.72265625 C-34.41925829 38.38267202 -38.38342502 34.94411384 -42 31 C-43.26889131 27.7008826 -42.88650494 26.6051201 -42 23 C-38.07628141 17.95087376 -34.30073719 16.86076785 -28.3125 15.6875 C-27.54099609 15.51927734 -26.76949219 15.35105469 -25.97460938 15.17773438 C-20.47050383 14 -20.47050383 14 -18 14 C-18.11859375 13.40832031 -18.2371875 12.81664062 -18.359375 12.20703125 C-19.00188707 8.26843224 -19.30882446 5.74117871 -17.75 2 C-12.71412323 -1.66245583 -5.88673145 -1.78885589 0 0 Z M-7 43 C-7 47.62 -7 52.24 -7 57 C-3.23312136 58.88343932 -1.97041037 59.22057835 2 59 C2.20496094 58.10796875 2.40992188 57.2159375 2.62109375 56.296875 C2.89050781 55.12640625 3.15992188 53.9559375 3.4375 52.75 C3.70433594 51.58984375 3.97117187 50.4296875 4.24609375 49.234375 C4.80968 46.81650239 5.38669951 44.40556696 6 42 C1.62876802 42 -2.65230869 42.54829181 -7 43 Z M-8 115 C-8 115.66 -8 116.32 -8 117 C-8.66 117 -9.32 117 -10 117 C-11.38938077 118.96147874 -12.7260411 120.96166576 -14 123 C-12.7934375 123.433125 -12.7934375 123.433125 -11.5625 123.875 C-9 125 -9 125 -8 127 C-7.34 127 -6.68 127 -6 127 C-6 127.66 -6 128.32 -6 129 C-4.68 129.66 -3.36 130.32 -2 131 C-2.57302279 122.31963046 -2.57302279 122.31963046 -5 114 C-6.2236068 113.9254644 -6.2236068 113.9254644 -8 115 Z " fill="#3BCDFD" transform="translate(42,2)"/>
<path d="M0 0 C0.66 0.33 1.32 0.66 2 1 C1.16855469 1.72316406 1.16855469 1.72316406 0.3203125 2.4609375 C-0.40414063 3.09257813 -1.12859375 3.72421875 -1.875 4.375 C-2.59429688 5.00148438 -3.31359375 5.62796875 -4.0546875 6.2734375 C-5.4076598 7.47426834 -6.7208345 8.7208345 -8 10 C-7.9375 7.8125 -7.9375 7.8125 -7 5 C-4.8282781 3.06842043 -2.47398953 1.51798313 0 0 Z " fill="#68D8FD" transform="translate(9,57)"/>
</svg>
